<svg xmlns="http://www.w3.org/2000/svg" id="Layer_1" x="0" y="0" enable-background="new 0 0 16 16" version="1.1" viewBox="0 0 16 16" xml:space="preserve"><path id="path7" fill="#231f20" stroke="none" d="M 7.763,2 C 4.034,2 1,5.034 1,8.763 c 0,1.807 0.703,3.505 1.98,4.782 1.278,1.278 2.976,1.981 4.783,1.981 3.729,0 6.763,-3.034 6.763,-6.763 C 14.526,5.034 11.492,2 7.763,2 Z M 3.675,13.501 c 0.946,-1.229 2.403,-1.966 3.958,-1.989 0.024,10e-4 0.047,0.007 0.071,0.007 l 0.023,0 c 0.022,0 0.042,-0.006 0.064,-0.007 1.58,0.026 3.047,0.784 3.992,2.046 -1.088,0.915 -2.49,1.468 -4.02,1.468 -1.518,0 -2.951,-0.541 -4.088,-1.525 z m 4.032,-2.494 c -0.025,0 -0.049,0.004 -0.074,0.005 C 6.432,10.973 5.466,9.99 5.466,8.757 c 0,-1.234 1.004,-2.238 2.262,-2.238 1.234,0 2.238,1.004 2.238,2.262 0,1.212 -0.97,2.197 -2.174,2.232 C 7.764,11.012 7.736,11.007 7.707,11.007 Z m 4.447,2.215 C 11.37,12.194 10.272,11.472 9.038,11.17 9.884,10.702 10.466,9.807 10.466,8.758 10.466,7.248 9.237,6.02 7.704,6.02 c -1.51,0 -2.738,1.229 -2.738,2.762 0,1.03 0.579,1.918 1.422,2.386 -1.213,0.295 -2.299,0.997 -3.081,1.995 -1.164,-1.179 -1.806,-2.739 -1.806,-4.398 0,-3.454 2.81,-6.263 6.263,-6.263 3.453,0 6.263,2.81 6.263,6.263 -10e-4,1.742 -0.719,3.32 -1.873,4.457 z"/></svg>